<svg xmlns="http://www.w3.org/2000/svg" viewBox="240 294 556 272" fill="none">
<path fill="#000000" stroke="none"
	d="
M727.321533,546.590088 
	C708.706726,551.019531 690.276611,548.834290 671.467102,548.642822 
	C676.476501,543.973877 679.276306,538.216675 682.432373,532.654724 
	C683.745605,530.340271 686.641846,531.127808 688.910583,531.006531 
	C712.683228,529.734863 733.704407,511.097229 736.486389,487.901642 
	C740.971558,450.505646 719.338806,429.221527 688.005066,423.300751 
	C673.263245,420.515198 658.461426,421.734222 643.676147,421.321289 
	C639.418701,421.202393 639.414307,423.826538 639.306763,426.880035 
	C638.747131,442.770050 636.414490,458.320648 630.403870,473.183746 
	C626.404907,483.072510 619.955017,491.332458 613.287842,499.448517 
	C611.730347,501.344452 610.559021,502.899902 612.976990,504.853882 
	C624.016724,513.775269 635.104248,522.562805 649.399902,525.913330 
	C659.340210,528.243042 667.023987,525.223083 672.868225,516.940918 
	C674.246521,514.987610 675.028931,512.356445 677.693359,511.617950 
	C679.816101,512.362915 679.290283,514.090759 679.235657,515.471680 
	C678.347412,537.933533 662.712524,552.787659 640.322571,553.438965 
	C618.652832,554.069275 600.779663,545.731140 585.141785,531.633057 
	C582.244019,529.020691 580.488037,528.697327 577.279480,531.240234 
	C540.887695,560.081543 486.968201,564.542419 446.374146,542.549988 
	C427.317352,532.225647 416.119171,516.085266 409.788635,495.855286 
	C407.306427,487.923218 404.006073,480.250488 401.261230,472.395721 
	C400.134705,469.171967 398.093964,468.158020 394.841370,468.166351 
	C369.009094,468.232544 343.176544,468.204865 317.344147,468.167816 
	C314.663147,468.163971 312.463928,468.548645 311.407043,471.526062 
	C306.283203,485.960358 299.944916,499.943359 295.398956,514.595520 
	C294.548950,517.335266 294.317657,520.119141 294.163971,522.960022 
	C293.835114,529.037842 296.688477,533.129578 301.869446,535.830688 
	C306.369049,538.176636 311.229462,539.403564 316.255493,539.603516 
	C320.141632,539.758118 320.251923,542.091858 320.321930,545.000916 
	C320.400055,548.245667 319.050873,549.387573 315.866089,549.377808 
	C293.033691,549.307434 270.200989,549.340088 247.368393,549.358398 
	C244.842743,549.360474 242.637527,549.174805 242.718948,545.749634 
	C242.786942,542.889771 242.314987,540.082031 246.486572,539.467102 
	C257.632324,537.824219 264.899017,531.203979 269.993011,521.362305 
	C278.137299,505.627380 283.937164,488.935455 290.514404,472.567352 
	C312.434875,418.016113 334.156494,363.384949 355.943420,308.780090 
	C356.744843,306.771515 357.655212,304.768127 358.130127,302.675049 
	C359.361359,297.248413 362.754608,295.634949 368.026428,296.007538 
	C371.196228,296.231628 372.687500,297.509613 373.849945,300.331787 
	C392.052460,344.524658 410.341644,388.681854 428.640625,432.834930 
	C429.573853,435.086609 430.259857,437.523590 432.509399,439.814941 
	C445.241272,427.187500 459.558228,417.124146 476.374054,409.695648 
	C471.970154,403.716492 468.104736,398.554199 464.330383,393.326141 
	C456.343597,382.263245 450.156982,370.308807 447.710938,356.783600 
	C443.269287,332.223663 452.264984,312.858215 474.899048,302.513489 
	C500.542664,290.793243 526.477539,291.364685 550.775696,306.818787 
	C569.912415,318.990112 575.146240,340.927734 564.693665,361.088379 
	C559.191895,371.700165 550.851990,379.745850 541.473389,386.851898 
	C535.892944,391.080109 530.147156,395.053619 524.030640,398.497955 
	C522.076904,399.598145 519.696960,400.345520 518.541809,402.921112 
	C520.703125,406.616364 523.836670,409.623260 526.751892,412.754272 
	C543.668945,430.923431 560.635742,449.046722 577.686890,467.089905 
	C580.647034,470.222260 581.632629,472.993774 579.457947,477.192688 
	C575.154114,485.502960 570.140625,493.342133 565.048401,501.158203 
	C563.126404,504.108276 561.543518,503.911652 559.284607,501.370148 
	C540.245239,479.948822 521.134033,458.591217 502.003906,437.250732 
	C497.221802,431.916107 492.248016,426.753479 487.455078,421.428284 
	C485.714661,419.494568 484.210571,419.270660 481.854980,420.611176 
	C460.386536,432.828522 447.729156,459.769653 450.826477,484.348969 
	C454.365082,512.430725 472.777954,530.813660 496.333374,535.520020 
	C519.295410,540.107910 539.635803,533.768188 557.004089,518.375610 
	C577.783997,499.959381 589.569702,476.528320 593.709167,449.243683 
	C597.598511,423.608185 596.735596,397.745026 596.650757,371.945190 
	C596.604248,357.800903 597.468567,343.643433 595.836304,329.502014 
	C594.291260,316.115601 588.451782,309.556885 575.093384,307.162476 
	C571.235046,306.470917 566.680115,306.593292 567.826477,300.341431 
	C568.255310,298.003021 569.035278,296.624023 571.557739,296.667572 
	C573.056824,296.693481 574.557129,296.636841 576.056885,296.637726 
	C613.055176,296.659454 650.060486,296.267975 687.048889,296.884705 
	C705.336304,297.189636 722.980408,301.426025 738.952271,311.148376 
	C757.342407,322.342712 763.775269,339.225677 761.742493,359.717163 
	C759.377686,383.556244 746.013489,399.362518 724.203979,408.447052 
	C723.436279,408.766846 722.681396,409.118866 721.930603,409.476990 
	C721.791809,409.543213 721.701660,409.711426 721.133545,410.322723 
	C725.467468,411.503204 729.585327,412.425598 733.571655,413.745178 
	C750.771301,419.438721 765.990417,428.047424 775.229004,444.409363 
	C793.776550,477.257538 784.503296,531.158447 734.027039,544.899048 
	C731.939697,545.467285 729.828979,545.950134 727.321533,546.590088 
M639.426941,327.331665 
	C639.578491,348.126526 639.739807,368.921356 639.873779,389.716339 
	C639.902649,394.200623 639.828003,398.685516 639.810791,403.170197 
	C639.797729,406.564545 641.532104,407.761841 644.858643,407.704010 
	C653.180420,407.559265 661.533875,408.087524 669.824585,407.559448 
	C683.328674,406.699280 696.189880,403.825012 705.973328,393.215546 
	C716.817871,381.455505 718.509094,367.073883 717.502563,352.166199 
	C716.034729,330.425690 703.219116,315.887878 681.768555,312.049866 
	C668.790649,309.727875 655.530945,311.348877 642.398193,311.197906 
	C639.976868,311.170044 639.371277,312.802124 639.385925,314.882324 
	C639.412964,318.711365 639.414124,322.540558 639.426941,327.331665 
M498.225006,307.473358 
	C486.910950,309.985657 477.985504,315.529175 475.018463,327.457001 
	C472.923126,335.880524 473.783783,344.306793 477.340546,352.345490 
	C484.134613,367.700928 495.069244,379.982880 506.577179,391.854004 
	C508.306488,393.637878 509.839813,393.733185 511.761932,392.232788 
	C529.168884,378.645081 540.665100,361.918884 539.611938,338.797028 
	C538.890259,322.952911 529.456360,311.514771 514.505554,307.864410 
	C509.430878,306.625336 504.248291,307.115082 498.225006,307.473358 
M386.466583,433.962708 
	C376.446442,408.736176 366.426300,383.509644 355.979279,357.208374 
	C343.828156,388.815094 332.155701,419.176788 320.475494,449.558594 
	C321.723816,450.127747 322.162872,450.502106 322.603210,450.503693 
	C344.592285,450.582733 366.581421,450.629974 388.570587,450.680511 
	C391.837494,450.688019 392.108490,448.818939 391.195770,446.348938 
	C389.753479,442.445862 388.229797,438.572876 386.466583,433.962708 
z"/>
</svg>