<svg version="1.1" id="Layer_1" xmlns="http://www.w3.org/2000/svg" xmlns:xlink="http://www.w3.org/1999/xlink" x="0px" y="0px"
	 width="100%" viewBox="0 0 1024 1024" enable-background="new 0 0 1024 1024" xml:space="preserve">
<path fill="#000000" opacity="1.000000" stroke="none" 
	d="
M727.321533,546.590088 
	C708.706726,551.019531 690.276611,548.834290 671.467102,548.642822 
	C676.476501,543.973877 679.276306,538.216675 682.432373,532.654724 
	C683.745605,530.340271 686.641846,531.127808 688.910583,531.006531 
	C712.683228,529.734863 733.704407,511.097229 736.486389,487.901642 
	C740.971558,450.505646 719.338806,429.221527 688.005066,423.300751 
	C673.263245,420.515198 658.461426,421.734222 643.676147,421.321289 
	C639.418701,421.202393 639.414307,423.826538 639.306763,426.880035 
	C638.747131,442.770050 636.414490,458.320648 630.403870,473.183746 
	C626.404907,483.072510 619.955017,491.332458 613.287842,499.448517 
	C611.730347,501.344452 610.559021,502.899902 612.976990,504.853882 
	C624.016724,513.775269 635.104248,522.562805 649.399902,525.913330 
	C659.340210,528.243042 667.023987,525.223083 672.868225,516.940918 
	C674.246521,514.987610 675.028931,512.356445 677.693359,511.617950 
	C679.816101,512.362915 679.290283,514.090759 679.235657,515.471680 
	C678.347412,537.933533 662.712524,552.787659 640.322571,553.438965 
	C618.652832,554.069275 600.779663,545.731140 585.141785,531.633057 
	C582.244019,529.020691 580.488037,528.697327 577.279480,531.240234 
	C540.887695,560.081543 486.968201,564.542419 446.374146,542.549988 
	C427.317352,532.225647 416.119171,516.085266 409.788635,495.855286 
	C407.306427,487.923218 404.006073,480.250488 401.261230,472.395721 
	C400.134705,469.171967 398.093964,468.158020 394.841370,468.166351 
	C369.009094,468.232544 343.176544,468.204865 317.344147,468.167816 
	C314.663147,468.163971 312.463928,468.548645 311.407043,471.526062 
	C306.283203,485.960358 299.944916,499.943359 295.398956,514.595520 
	C294.548950,517.335266 294.317657,520.119141 294.163971,522.960022 
	C293.835114,529.037842 296.688477,533.129578 301.869446,535.830688 
	C306.369049,538.176636 311.229462,539.403564 316.255493,539.603516 
	C320.141632,539.758118 320.251923,542.091858 320.321930,545.000916 
	C320.400055,548.245667 319.050873,549.387573 315.866089,549.377808 
	C293.033691,549.307434 270.200989,549.340088 247.368393,549.358398 
	C244.842743,549.360474 242.637527,549.174805 242.718948,545.749634 
	C242.786942,542.889771 242.314987,540.082031 246.486572,539.467102 
	C257.632324,537.824219 264.899017,531.203979 269.993011,521.362305 
	C278.137299,505.627380 283.937164,488.935455 290.514404,472.567352 
	C312.434875,418.016113 334.156494,363.384949 355.943420,308.780090 
	C356.744843,306.771515 357.655212,304.768127 358.130127,302.675049 
	C359.361359,297.248413 362.754608,295.634949 368.026428,296.007538 
	C371.196228,296.231628 372.687500,297.509613 373.849945,300.331787 
	C392.052460,344.524658 410.341644,388.681854 428.640625,432.834930 
	C429.573853,435.086609 430.259857,437.523590 432.509399,439.814941 
	C445.241272,427.187500 459.558228,417.124146 476.374054,409.695648 
	C471.970154,403.716492 468.104736,398.554199 464.330383,393.326141 
	C456.343597,382.263245 450.156982,370.308807 447.710938,356.783600 
	C443.269287,332.223663 452.264984,312.858215 474.899048,302.513489 
	C500.542664,290.793243 526.477539,291.364685 550.775696,306.818787 
	C569.912415,318.990112 575.146240,340.927734 564.693665,361.088379 
	C559.191895,371.700165 550.851990,379.745850 541.473389,386.851898 
	C535.892944,391.080109 530.147156,395.053619 524.030640,398.497955 
	C522.076904,399.598145 519.696960,400.345520 518.541809,402.921112 
	C520.703125,406.616364 523.836670,409.623260 526.751892,412.754272 
	C543.668945,430.923431 560.635742,449.046722 577.686890,467.089905 
	C580.647034,470.222260 581.632629,472.993774 579.457947,477.192688 
	C575.154114,485.502960 570.140625,493.342133 565.048401,501.158203 
	C563.126404,504.108276 561.543518,503.911652 559.284607,501.370148 
	C540.245239,479.948822 521.134033,458.591217 502.003906,437.250732 
	C497.221802,431.916107 492.248016,426.753479 487.455078,421.428284 
	C485.714661,419.494568 484.210571,419.270660 481.854980,420.611176 
	C460.386536,432.828522 447.729156,459.769653 450.826477,484.348969 
	C454.365082,512.430725 472.777954,530.813660 496.333374,535.520020 
	C519.295410,540.107910 539.635803,533.768188 557.004089,518.375610 
	C577.783997,499.959381 589.569702,476.528320 593.709167,449.243683 
	C597.598511,423.608185 596.735596,397.745026 596.650757,371.945190 
	C596.604248,357.800903 597.468567,343.643433 595.836304,329.502014 
	C594.291260,316.115601 588.451782,309.556885 575.093384,307.162476 
	C571.235046,306.470917 566.680115,306.593292 567.826477,300.341431 
	C568.255310,298.003021 569.035278,296.624023 571.557739,296.667572 
	C573.056824,296.693481 574.557129,296.636841 576.056885,296.637726 
	C613.055176,296.659454 650.060486,296.267975 687.048889,296.884705 
	C705.336304,297.189636 722.980408,301.426025 738.952271,311.148376 
	C757.342407,322.342712 763.775269,339.225677 761.742493,359.717163 
	C759.377686,383.556244 746.013489,399.362518 724.203979,408.447052 
	C723.436279,408.766846 722.681396,409.118866 721.930603,409.476990 
	C721.791809,409.543213 721.701660,409.711426 721.133545,410.322723 
	C725.467468,411.503204 729.585327,412.425598 733.571655,413.745178 
	C750.771301,419.438721 765.990417,428.047424 775.229004,444.409363 
	C793.776550,477.257538 784.503296,531.158447 734.027039,544.899048 
	C731.939697,545.467285 729.828979,545.950134 727.321533,546.590088 
M639.426941,327.331665 
	C639.578491,348.126526 639.739807,368.921356 639.873779,389.716339 
	C639.902649,394.200623 639.828003,398.685516 639.810791,403.170197 
	C639.797729,406.564545 641.532104,407.761841 644.858643,407.704010 
	C653.180420,407.559265 661.533875,408.087524 669.824585,407.559448 
	C683.328674,406.699280 696.189880,403.825012 705.973328,393.215546 
	C716.817871,381.455505 718.509094,367.073883 717.502563,352.166199 
	C716.034729,330.425690 703.219116,315.887878 681.768555,312.049866 
	C668.790649,309.727875 655.530945,311.348877 642.398193,311.197906 
	C639.976868,311.170044 639.371277,312.802124 639.385925,314.882324 
	C639.412964,318.711365 639.414124,322.540558 639.426941,327.331665 
M498.225006,307.473358 
	C486.910950,309.985657 477.985504,315.529175 475.018463,327.457001 
	C472.923126,335.880524 473.783783,344.306793 477.340546,352.345490 
	C484.134613,367.700928 495.069244,379.982880 506.577179,391.854004 
	C508.306488,393.637878 509.839813,393.733185 511.761932,392.232788 
	C529.168884,378.645081 540.665100,361.918884 539.611938,338.797028 
	C538.890259,322.952911 529.456360,311.514771 514.505554,307.864410 
	C509.430878,306.625336 504.248291,307.115082 498.225006,307.473358 
M386.466583,433.962708 
	C376.446442,408.736176 366.426300,383.509644 355.979279,357.208374 
	C343.828156,388.815094 332.155701,419.176788 320.475494,449.558594 
	C321.723816,450.127747 322.162872,450.502106 322.603210,450.503693 
	C344.592285,450.582733 366.581421,450.629974 388.570587,450.680511 
	C391.837494,450.688019 392.108490,448.818939 391.195770,446.348938 
	C389.753479,442.445862 388.229797,438.572876 386.466583,433.962708 
z"/>
<path fill="#000000" opacity="1.000000" stroke="none" 
	d="
M268.969513,607.273926 
	C267.833160,606.113525 266.273956,605.454102 267.062805,603.807312 
	C267.675354,602.528503 269.059174,602.888550 270.181244,602.774109 
	C270.346283,602.757202 270.514435,602.774658 270.680756,602.767029 
	C285.173889,602.104614 285.127502,602.124084 290.847961,615.729736 
	C294.438934,624.270569 298.194672,632.742188 301.818512,641.111023 
	C304.389313,640.611389 304.572235,638.929382 305.129395,637.617676 
	C309.360291,627.657654 313.702209,617.740234 317.671906,607.676331 
	C319.118500,604.008850 321.119537,602.276855 325.088043,602.706970 
	C329.113342,603.143188 333.271667,602.066956 338.282227,603.539673 
	C330.635315,610.945618 333.526062,619.771851 333.189972,627.965332 
	C332.869507,635.778076 333.299835,643.619934 333.324402,651.449219 
	C333.337646,655.675537 333.695374,659.728149 336.517090,663.216553 
	C337.982758,665.028564 337.863770,667.001465 335.151154,667.077759 
	C329.338867,667.241150 323.513611,666.998474 317.696289,666.830627 
	C317.173645,666.815552 316.670197,666.134827 315.645569,665.391602 
	C320.765930,660.577698 319.721680,654.408752 319.757050,648.483215 
	C319.806366,640.217773 319.769470,631.951721 319.302551,623.614136 
	C315.969086,627.574280 314.578644,632.346497 312.590637,636.787598 
	C309.326630,644.079163 306.425964,651.533081 303.347656,658.908386 
	C302.532043,660.862488 302.083527,663.211853 299.226074,663.251160 
	C296.205292,663.292725 295.481842,660.891602 294.549713,658.783020 
	C290.241913,649.037720 285.978516,639.272766 281.669617,629.527954 
	C281.150635,628.354309 280.957977,626.933594 279.362732,626.134827 
	C277.628998,627.366455 278.088013,629.300293 278.078522,630.965759 
	C278.044250,636.962463 278.218292,642.961060 278.142456,648.956726 
	C278.065033,655.073853 278.347992,660.998474 284.000336,664.990051 
	C280.416718,667.841797 270.479553,668.005249 265.727112,665.264343 
	C272.837677,658.962524 271.006592,650.318726 271.492096,642.408325 
	C272.052399,633.279541 271.604980,624.091003 271.678925,614.929077 
	C271.701447,612.137085 270.981354,609.680542 268.969513,607.273926 
z"/>
<path fill="#000000" opacity="1.000000" stroke="none" 
	d="
M626.653992,667.270386 
	C624.347778,667.085938 621.971924,668.276428 620.796082,666.008362 
	C619.779236,664.046936 622.075989,663.209534 622.889587,661.889526 
	C624.158875,659.830261 624.689575,657.658630 624.683228,655.259216 
	C624.647644,641.786011 624.476868,628.308838 624.758057,614.841492 
	C624.849487,610.464661 621.892151,607.645813 620.333252,603.896912 
	C621.166687,603.432739 621.705627,602.873474 622.251038,602.867065 
	C633.373108,602.736084 644.518127,601.789673 655.595642,603.572632 
	C662.050293,604.611572 667.478760,607.185974 669.332642,614.106323 
	C671.130371,620.816956 668.702393,626.136597 663.340454,630.297119 
	C662.849976,630.677673 662.489624,631.225891 662.154175,631.600830 
	C662.575867,633.409363 664.063721,633.643616 665.172424,634.257263 
	C671.365784,637.684875 674.268005,643.183655 673.752808,649.952393 
	C673.206970,657.122803 669.376038,662.402161 662.228516,664.751709 
	C655.013977,667.123230 647.557373,667.399902 640.053162,667.299011 
	C635.729248,667.240845 631.404175,667.268616 626.653992,667.270386 
M644.605652,661.012085 
	C653.683716,660.425659 657.943481,657.314636 658.695068,650.722290 
	C659.826050,640.800842 654.308167,635.487732 643.631348,636.018738 
	C640.532104,636.172852 639.062500,637.459961 639.085510,640.576416 
	C639.123535,645.726929 639.138000,650.878967 639.051147,656.028503 
	C638.996033,659.300293 640.348694,661.058167 644.605652,661.012085 
M645.190613,629.771484 
	C652.582703,628.384460 656.220520,624.153076 655.610107,617.651733 
	C655.084351,612.052246 650.190125,608.218506 643.972839,608.396667 
	C640.786560,608.488037 638.971130,609.672424 639.057312,613.158203 
	C639.151917,616.980591 639.096741,620.810059 638.991211,624.633240 
	C638.887207,628.398010 640.442932,630.295654 645.190613,629.771484 
z"/>
<path fill="#000000" opacity="1.000000" stroke="none" 
	d="
M749.442871,602.629883 
	C757.850342,602.495422 765.810913,602.174316 773.724976,603.738281 
	C788.361145,606.630676 797.780151,617.248657 798.279480,631.675720 
	C798.908936,649.858704 790.918030,661.531128 775.288025,665.583923 
	C763.946655,668.524719 752.461121,666.936462 741.025513,666.995972 
	C740.006104,667.001282 739.076477,666.584656 738.486877,664.971252 
	C743.505798,659.902283 742.604309,653.113403 742.635193,646.533752 
	C742.673462,638.381226 742.643677,630.228394 742.664307,622.075684 
	C742.680176,615.788269 743.527588,609.323486 737.876465,604.264709 
	C741.835266,601.667603 745.536743,602.946655 749.442871,602.629883 
M764.136902,661.372986 
	C773.397400,660.797974 778.548584,655.246582 781.138977,646.942078 
	C783.622864,638.978760 783.643188,630.842346 781.197449,622.889526 
	C778.688904,614.732605 773.240601,609.546936 764.495361,608.502991 
	C758.869385,607.831299 757.232361,609.284912 757.215759,614.902466 
	C757.175842,628.373657 757.294373,641.845703 757.196045,655.316284 
	C757.164185,659.675354 758.708435,662.005798 764.136902,661.372986 
z"/>
<path fill="#000000" opacity="1.000000" stroke="none" 
	d="
M437.103241,666.432129 
	C425.815613,667.836304 415.006409,667.403076 402.696899,666.398438 
	C408.878113,660.521606 407.768280,654.195068 407.807556,648.127869 
	C407.867920,638.807007 407.868805,629.485596 407.849854,620.164490 
	C407.833435,612.101990 407.805695,612.102051 403.924225,603.932800 
	C404.410980,602.787048 405.469299,602.763184 406.450806,602.773254 
	C417.414093,602.885437 428.404541,601.937744 439.322388,603.778503 
	C452.947418,606.075745 462.625031,616.508484 464.163208,630.689758 
	C465.779663,645.592590 458.002838,659.424988 445.205017,664.213318 
	C442.725739,665.141052 440.096375,665.667542 437.103241,666.432129 
M448.669434,630.897461 
	C448.372650,627.047546 447.417511,623.353149 445.805664,619.859741 
	C442.513824,612.725220 435.288788,608.166138 427.934601,608.414429 
	C424.721954,608.523010 422.395386,609.507996 422.395721,613.272217 
	C422.397003,627.736816 422.386108,642.201416 422.355743,656.666016 
	C422.349213,659.776123 424.103638,661.429504 426.935486,661.457092 
	C432.706024,661.513306 438.080444,660.437134 442.208801,655.687073 
	C448.270294,648.712708 448.842499,640.384338 448.669434,630.897461 
z"/>
<path fill="#000000" opacity="1.000000" stroke="none" 
	d="
M870.868774,645.471069 
	C866.329041,659.105713 855.531982,667.458435 841.816406,668.233032 
	C826.645142,669.089905 813.408630,661.881592 807.996765,649.815613 
	C802.300476,637.115479 804.801697,621.109253 813.978943,611.533447 
	C824.037476,601.038086 842.348328,598.570068 856.165833,605.847290 
	C868.417908,612.300049 874.750305,626.549988 871.858643,641.180115 
	C871.600464,642.486267 871.288269,643.781677 870.868774,645.471069 
M848.231506,658.842590 
	C858.617981,648.728943 859.732727,624.098389 850.304321,613.042114 
	C843.968567,605.612427 833.613770,605.547974 827.218994,612.898438 
	C818.229858,623.230774 818.111267,645.795898 826.990723,656.337646 
	C832.301025,662.642090 839.741394,663.709229 848.231506,658.842590 
z"/>
<path fill="#000000" opacity="1.000000" stroke="none" 
	d="
M551.158569,619.508667 
	C554.726074,610.884277 570.227112,609.626099 576.588501,614.182312 
	C581.946716,618.020081 582.451721,626.022400 577.463745,631.312317 
	C575.881653,632.990173 573.949829,634.338196 571.720886,636.223938 
	C574.613220,640.631348 578.162903,644.380432 581.930481,648.092590 
	C586.708618,644.577576 583.433289,640.261963 583.602051,636.209473 
	C587.438416,635.573425 590.564636,637.147461 593.674866,638.566467 
	C595.431946,639.368103 595.283997,640.986389 594.617920,642.445923 
	C593.446045,645.013367 592.282349,647.603577 590.855774,650.031738 
	C588.000549,654.891479 588.447754,657.023193 593.469849,659.922913 
	C595.155151,660.895996 597.038208,661.526550 598.842712,662.318787 
	C596.197266,667.340271 590.659546,669.244812 584.685303,665.997742 
	C580.055176,663.481140 576.534058,664.325073 572.145813,666.062195 
	C565.915649,668.528503 559.329285,668.206177 553.165283,665.467590 
	C543.284912,661.077820 541.514099,648.868591 549.975952,641.052002 
	C553.618042,637.687683 554.430664,635.137451 551.800659,630.926575 
	C549.710693,627.580322 549.409485,623.687622 551.158569,619.508667 
M557.648804,651.759766 
	C560.319336,658.090027 564.357727,660.883728 569.151855,659.578369 
	C571.192383,659.022827 573.405945,657.972717 571.464600,655.482910 
	C568.149719,651.231567 564.841797,646.885864 560.330811,643.773438 
	C557.457825,645.745117 557.172241,648.281250 557.648804,651.759766 
M567.111450,617.705566 
	C562.175415,617.796021 561.950500,621.084900 562.943359,624.521606 
	C563.557617,626.647583 564.080383,629.822632 567.453552,629.315125 
	C570.116333,628.914551 571.662659,623.360229 570.220703,620.288818 
	C569.710754,619.202515 568.873962,618.437073 567.111450,617.705566 
z"/>
<path fill="#000000" opacity="1.000000" stroke="none" 
	d="
M676.641846,667.064575 
	C674.071716,666.458679 673.176025,665.135742 674.961121,663.510864 
	C680.315369,658.637451 681.752014,651.739319 684.321594,645.515625 
	C689.656555,632.594360 694.500061,619.469421 699.481140,606.403564 
	C700.484070,603.772644 701.510498,601.644287 704.952087,601.624695 
	C708.365662,601.605225 708.975464,604.015320 709.887451,606.315491 
	C715.408752,620.241516 720.913879,634.174011 726.425415,648.104004 
	C728.910706,654.385620 731.193970,660.778503 737.920654,666.159180 
	C728.559753,667.614685 721.005249,667.457520 713.263184,666.578552 
	C713.156738,663.198547 716.147644,661.678406 715.627136,658.619080 
	C714.135864,649.854675 711.512390,647.401123 702.478577,647.380615 
	C701.145813,647.377563 699.813049,647.356262 698.480347,647.361511 
	C691.571228,647.388916 687.145081,652.064148 687.432739,658.981995 
	C687.511475,660.873474 688.774658,661.936157 690.045715,663.029114 
	C690.953979,663.810059 691.838440,664.654907 691.155273,665.989685 
	C690.626831,667.022217 689.559631,667.109009 688.558044,667.114807 
	C684.727173,667.136902 680.896057,667.118774 676.641846,667.064575 
M697.252747,630.688782 
	C696.257446,634.112671 694.231445,637.262939 694.231628,641.101868 
	C697.753845,642.013672 701.080444,641.690796 704.373840,641.525879 
	C706.741455,641.407288 708.284058,640.160645 707.463623,637.590820 
	C705.811401,632.415710 704.244812,627.185608 701.368408,622.271423 
	C698.889648,624.485352 698.789001,627.523071 697.252747,630.688782 
z"/>
<path fill="#000000" opacity="1.000000" stroke="none" 
	d="
M488.469818,605.503662 
	C489.261078,602.247375 491.387634,601.814087 493.914124,601.695618 
	C496.777191,601.561279 497.555725,603.555847 498.362762,605.584900 
	C503.645599,618.866577 508.879028,632.168030 514.189758,645.438538 
	C517.000793,652.462708 518.934937,659.966980 525.004883,665.860107 
	C517.040344,667.509399 509.311951,667.488281 500.872101,666.486389 
	C502.654968,662.984436 504.402527,660.673157 503.673859,657.325684 
	C501.900330,649.178467 499.983398,647.390686 491.652985,647.364624 
	C490.321960,647.360474 488.990936,647.358582 487.659912,647.357300 
	C479.749847,647.349792 476.955170,650.262634 476.205139,658.196533 
	C475.857574,661.873108 479.265991,663.014832 480.760742,666.289856 
	C474.415314,667.495178 468.752686,667.472839 463.395325,666.440369 
	C473.897308,646.747070 480.192230,625.925171 488.469818,605.503662 
M484.343750,641.495300 
	C487.315033,641.540466 490.290100,641.695251 493.256226,641.592346 
	C495.252136,641.523010 497.220276,640.554504 496.445526,638.254639 
	C494.689453,633.041809 493.097748,627.702087 489.768555,622.302551 
	C486.538055,628.446899 484.554504,634.166870 482.686279,639.928833 
	C482.460327,640.625732 483.017548,641.133606 484.343750,641.495300 
z"/>
<path fill="#000000" opacity="1.000000" stroke="none" 
	d="
M401.247711,665.988159 
	C393.677948,667.835022 386.404724,667.232666 378.886230,666.571289 
	C379.408997,662.989502 381.967346,661.123108 381.074127,657.799622 
	C378.422668,647.934387 377.894745,647.302429 367.612671,647.339966 
	C366.613495,647.343628 365.614319,647.349670 364.615143,647.351990 
	C356.536682,647.370911 354.277924,649.640686 353.300812,657.621033 
	C352.836487,661.413208 356.407104,662.807800 357.851440,666.283508 
	C351.301300,667.505066 345.459930,667.892212 339.416992,666.193359 
	C351.580994,646.957886 357.023468,625.406860 365.486237,605.149719 
	C366.471161,602.792175 367.858704,601.842773 370.316986,601.686218 
	C373.072906,601.510681 374.145599,603.122192 375.006866,605.263245 
	C381.030518,620.237549 387.229279,635.144165 393.021088,650.207397 
	C395.173950,655.806580 398.418732,660.669617 401.247711,665.988159 
M373.032257,636.468811 
	C370.927002,631.768372 369.873016,626.574036 366.494720,621.490295 
	C363.772156,628.430054 360.575958,634.207520 359.848663,640.920715 
	C363.571411,642.238159 366.913025,641.584229 370.197418,641.677551 
	C373.471741,641.770691 374.293762,640.095154 373.032257,636.468811 
z"/>
<path fill="#000000" opacity="1.000000" stroke="none" 
	d="
M183.764542,647.357056 
	C181.803894,647.355286 180.304245,647.353699 178.804611,647.353088 
	C169.815979,647.349304 168.537827,648.636108 166.813034,657.507751 
	C166.040771,661.479858 169.836212,662.701233 171.156342,666.184570 
	C164.998169,667.572693 159.291306,667.428223 152.235382,666.029053 
	C159.019531,659.379333 161.445572,651.479187 164.389923,643.830994 
	C169.176239,631.398132 174.039581,618.994446 178.739090,606.528931 
	C179.779449,603.769348 181.120956,601.970215 184.327515,601.784485 
	C187.823212,601.582031 188.275635,604.175171 189.186356,606.458252 
	C195.046646,621.149048 200.881607,635.849976 206.777512,650.526428 
	C208.936508,655.900757 210.978836,661.367249 215.693039,665.763855 
	C207.770676,667.621460 200.126251,667.022095 191.986816,666.831116 
	C197.325562,656.143921 193.481644,647.519958 183.764542,647.357056 
M173.464218,638.793640 
	C173.179688,640.695618 174.082062,641.642212 175.922165,641.661682 
	C178.570602,641.689697 181.223785,641.703186 183.868042,641.577271 
	C186.776138,641.438904 187.599991,639.739502 186.659119,637.171814 
	C184.740250,631.935303 182.724655,626.734253 180.256241,620.217957 
	C177.741791,627.005310 175.695480,632.528992 173.464218,638.793640 
z"/>
<path fill="#000000" opacity="1.000000" stroke="none" 
	d="
M236.087097,624.012695 
	C236.095688,634.670471 236.051514,644.831238 236.131622,654.991028 
	C236.175323,660.535645 237.029205,661.032776 242.679062,661.023315 
	C250.037155,661.010925 255.590759,658.396362 258.671600,651.383301 
	C259.315674,649.916931 260.126587,648.306274 262.908173,648.532837 
	C263.910065,654.303833 261.796417,659.776184 260.731873,665.306519 
	C260.467316,666.681091 258.769897,667.030701 257.395233,667.028198 
	C245.072540,667.005615 232.749771,666.963196 220.427551,666.863159 
	C219.685760,666.857117 218.948380,666.310547 217.552643,665.753662 
	C223.314056,660.170288 221.736465,653.309204 221.814163,646.799377 
	C221.925461,637.473022 221.892059,628.144348 221.855545,618.816956 
	C221.835434,613.677307 222.388443,608.357300 216.549911,603.733093 
	C225.541992,602.191711 232.982635,602.588440 242.239563,603.298706 
	C234.593262,609.463379 236.197891,616.679749 236.087097,624.012695 
z"/>
<path fill="#000000" opacity="1.000000" stroke="none" 
	d="
M287.657166,720.721313 
	C286.425903,719.354675 285.319702,718.340454 284.909515,720.851440 
	C284.588745,722.814819 284.436523,724.809021 284.279358,726.795044 
	C284.127930,728.708435 283.346527,730.039307 281.254700,729.954834 
	C279.376007,729.879089 278.739166,728.524597 278.730408,726.868164 
	C278.694366,720.055237 278.689117,713.242126 278.702576,706.429077 
	C278.705444,704.975464 279.264984,703.867310 280.852936,703.508911 
	C283.034119,703.016602 284.897461,703.524170 286.035614,705.481995 
	C288.094025,709.022827 290.003845,712.649963 292.772522,716.169983 
	C292.772522,713.102966 292.741089,710.035522 292.783569,706.969116 
	C292.811920,704.921692 293.485535,703.322937 295.936127,703.424683 
	C298.250061,703.520752 298.452911,705.255005 298.465759,706.974304 
	C298.514099,713.448181 298.526733,719.922546 298.508820,726.396545 
	C298.504852,727.825378 298.942780,729.621094 296.893890,730.074280 
	C294.994171,730.494446 293.180664,730.113953 292.077209,728.319031 
	C290.599335,725.915039 289.245941,723.434448 287.657166,720.721313 
z"/>
<path fill="#000000" opacity="1.000000" stroke="none" 
	d="
M580.758423,730.970703 
	C571.621033,729.998901 568.119324,726.569702 567.693054,718.614685 
	C567.213989,709.674622 570.213318,704.634094 576.919556,703.108948 
	C583.463257,701.620789 588.903870,704.942078 590.678772,711.412903 
	C592.649231,718.596436 589.749695,730.433838 580.758423,730.970703 
M580.872437,708.701294 
	C575.464844,708.782288 572.600342,715.538269 575.317505,721.754272 
	C576.193298,723.757935 577.576660,724.990601 579.859253,724.913574 
	C582.163025,724.835876 583.655823,723.509155 584.076294,721.389832 
	C584.954102,716.966370 585.591248,712.490112 580.872437,708.701294 
z"/>
<path fill="#000000" opacity="1.000000" stroke="none" 
	d="
M729.759583,703.836121 
	C734.522339,706.485840 735.835754,710.894287 733.722839,714.642578 
	C731.002075,719.468933 732.289734,722.990723 734.732666,726.909302 
	C735.058960,727.432739 735.115112,728.124573 735.365356,728.972107 
	C732.393372,730.962097 730.098572,730.494873 728.232910,727.612366 
	C726.819824,725.428833 725.433044,723.228271 723.885193,720.801086 
	C721.589722,722.513123 722.532043,724.656433 722.302856,726.439453 
	C722.077759,728.190308 721.810547,729.857849 719.640747,729.991150 
	C717.446594,730.125854 716.116882,728.934753 716.082458,726.757263 
	C715.975098,719.959167 715.959900,713.159058 715.969543,706.359863 
	C715.972717,704.091248 717.447266,703.160950 719.513550,703.018677 
	C722.827820,702.790283 726.145996,702.606934 729.759583,703.836121 
M724.583862,714.605896 
	C727.241150,714.654785 728.091370,713.240906 727.353516,710.882568 
	C726.984131,709.701965 725.751221,708.945190 724.636902,709.481018 
	C722.258118,710.624817 722.705383,712.464844 724.583862,714.605896 
z"/>
<path fill="#000000" opacity="1.000000" stroke="none" 
	d="
M561.829712,722.159424 
	C562.843140,724.629456 563.712341,726.744995 564.574707,728.843994 
	C561.460815,730.288269 561.460815,730.288269 553.164612,722.099670 
	C551.295471,723.566589 552.271606,725.811890 551.685608,727.611511 
	C551.146973,729.265442 550.247620,730.167419 548.481750,730.103943 
	C546.638367,730.037659 545.781738,728.989990 545.758789,727.237427 
	C545.667419,720.271484 545.583679,713.305359 545.554504,706.338989 
	C545.549683,705.186157 545.788330,704.064331 546.993103,703.371277 
	C549.368591,702.004822 558.477356,703.079163 560.925720,705.180725 
	C564.609924,708.343140 564.025391,712.235291 562.483215,716.126160 
	C561.741150,717.998535 560.714050,719.732788 561.829712,722.159424 
M553.650574,714.531128 
	C556.316467,714.612061 557.181580,713.188660 556.493286,710.822327 
	C556.141907,709.614136 554.889954,708.909668 553.769226,709.436401 
	C551.393311,710.553040 551.782776,712.383911 553.650574,714.531128 
z"/>
<path fill="#000000" opacity="1.000000" stroke="none" 
	d="
M253.445511,706.545410 
	C262.793915,699.409912 271.977997,703.005066 273.829041,714.127441 
	C274.963257,720.942444 272.000153,727.894714 267.097992,729.920349 
	C259.336975,733.127441 251.501144,728.425293 250.557083,719.666626 
	C250.079346,715.234314 250.164139,710.671448 253.445511,706.545410 
M258.004822,710.864258 
	C256.589539,714.233459 256.787628,717.708923 257.542145,721.145874 
	C258.000305,723.232849 259.335693,724.682068 261.649536,724.905823 
	C263.439117,725.078735 265.084045,724.668457 265.927063,723.003601 
	C267.713623,719.475586 268.487610,715.766663 266.695587,711.995972 
	C264.813141,708.035095 262.327057,707.546387 258.004822,710.864258 
z"/>
<path fill="#000000" opacity="1.000000" stroke="none" 
	d="
M389.938965,714.383057 
	C392.247345,704.863281 397.687653,701.040344 405.198608,703.276978 
	C411.123779,705.041382 413.790802,710.112793 413.272461,718.630005 
	C412.841034,725.719849 408.842621,730.264832 402.493744,730.882141 
	C396.536285,731.461365 392.033691,727.651428 390.351166,720.737427 
	C389.871002,718.764282 389.678864,716.811401 389.938965,714.383057 
M401.500458,708.376587 
	C397.728760,708.841064 396.700439,711.579163 396.411285,714.750183 
	C396.088531,718.289612 396.098328,721.869141 399.275696,724.327942 
	C401.456390,726.015503 403.635376,725.773560 405.392181,723.536621 
	C408.646912,719.392212 406.893982,711.093445 401.500458,708.376587 
z"/>
<path fill="#000000" opacity="1.000000" stroke="none" 
	d="
M774.943970,708.310974 
	C776.997559,712.535522 777.276367,716.612366 776.590454,720.802002 
	C775.522217,727.327148 770.967041,731.172424 764.572021,730.953064 
	C758.522888,730.745544 754.293030,726.561584 753.716064,720.117920 
	C753.568542,718.470520 753.601440,716.800903 753.642273,715.143738 
	C753.787720,709.238525 756.515137,705.060974 761.207336,703.476929 
	C766.327454,701.748352 770.940796,703.281677 774.943970,708.310974 
M768.561462,723.760986 
	C771.027161,719.801147 771.208252,715.665405 769.407349,711.431763 
	C768.468750,709.225342 766.818420,708.005005 764.308838,708.450439 
	C760.589966,709.110657 758.466980,714.106201 759.746155,719.096680 
	C761.145081,724.554321 763.164917,725.810547 768.561462,723.760986 
z"/>
<path fill="#000000" opacity="1.000000" stroke="none" 
	d="
M436.259003,729.530151 
	C433.068024,730.804504 431.217133,729.729614 429.870941,727.096313 
	C429.017395,725.426636 428.544891,723.271667 426.137665,722.828125 
	C424.455994,724.156921 424.741669,726.134399 424.364166,727.844055 
	C423.956940,729.688049 422.778198,730.223755 421.082794,730.093384 
	C419.411377,729.964905 418.778931,728.850037 418.768036,727.390259 
	C418.714844,720.251648 418.710693,713.112610 418.715881,705.973694 
	C418.716797,704.737000 419.165955,703.800781 420.465424,703.268494 
	C423.293243,702.110291 432.843903,703.791077 434.632385,706.122192 
	C437.380127,709.703491 437.134521,713.590332 434.806671,717.254822 
	C433.651367,719.073364 434.034027,720.553711 434.596222,722.386902 
	C435.297546,724.673584 437.480530,726.567383 436.259003,729.530151 
M425.214722,710.886902 
	C425.046753,712.749084 424.873688,714.781860 427.641602,714.429443 
	C429.319122,714.215820 430.190002,712.796143 429.607635,711.177002 
	C428.829315,709.013123 427.320770,708.616089 425.214722,710.886902 
z"/>
<path fill="#000000" opacity="1.000000" stroke="none" 
	d="
M530.507690,708.535889 
	C525.104675,711.772766 523.676575,718.877502 527.294006,723.131470 
	C528.636414,724.710144 530.483704,726.190735 532.398865,724.531433 
	C534.242432,722.933960 533.180359,721.324280 531.322021,720.156860 
	C530.042358,719.353149 529.548767,717.970703 530.351440,716.692200 
	C531.607483,714.691711 533.842041,715.122925 535.790955,715.036438 
	C537.384216,714.965637 539.039795,715.328613 539.154541,717.201111 
	C539.367188,720.672668 539.329956,724.166992 539.203979,727.644836 
	C539.181763,728.259827 538.323486,728.999084 537.679077,729.412598 
	C532.205872,732.924316 523.275513,730.424072 520.510620,724.512573 
	C517.601257,718.292175 518.016724,712.080078 522.004211,706.556946 
	C524.963867,702.457336 529.631226,702.160339 534.249817,703.053589 
	C536.095459,703.410583 538.768860,703.746826 538.393555,706.403870 
	C538.004761,709.155579 535.740662,709.389221 533.337463,708.663757 
	C532.565796,708.430847 531.697632,708.517944 530.507690,708.535889 
z"/>
<path fill="#000000" opacity="1.000000" stroke="none" 
	d="
M510.485535,709.599548 
	C512.365417,715.326477 514.138062,720.672058 515.859680,726.033936 
	C516.309875,727.435852 516.985046,729.095398 515.082397,729.909485 
	C513.224060,730.704529 511.578796,730.209351 510.301910,728.470886 
	C506.096924,722.745605 504.156586,722.689514 499.936859,728.324402 
	C498.630920,730.068298 497.144684,730.750305 495.268066,729.834595 
	C493.183044,728.817139 494.091187,726.986633 494.596405,725.473816 
	C496.589905,719.504456 498.658691,713.560120 500.712677,707.611084 
	C501.460236,705.445923 501.849579,703.050049 505.053650,703.063110 
	C508.058777,703.075378 508.989624,705.003662 509.681885,707.356018 
	C509.868530,707.990295 510.131348,708.602112 510.485535,709.599548 
z"/>
<path fill="#000000" opacity="1.000000" stroke="none" 
	d="
M682.275940,703.701172 
	C684.936768,703.195679 686.299683,704.068115 686.240295,706.445740 
	C686.095215,712.255127 686.782227,718.092712 685.673767,723.870972 
	C684.732239,728.778931 681.476501,730.830017 676.779053,730.914001 
	C672.114502,730.997375 667.999146,729.743286 666.624512,724.687256 
	C664.940735,718.493713 665.914551,712.121765 666.011902,705.825317 
	C666.040527,703.975830 667.537231,703.408447 669.204712,703.427368 
	C670.924133,703.446899 672.145630,704.179688 672.202942,706.032166 
	C672.295593,709.024414 672.199341,712.022949 672.313293,715.013977 
	C672.395264,717.165833 672.597778,719.323303 672.915894,721.453003 
	C673.214294,723.450562 674.262390,724.887878 676.532043,724.815979 
	C679.050171,724.736328 680.044128,723.008606 680.176819,720.853821 
	C680.432251,716.708374 680.438171,712.548096 680.611145,708.396606 
	C680.677734,706.797058 680.193726,705.001038 682.275940,703.701172 
z"/>
<path fill="#000000" opacity="1.000000" stroke="none" 
	d="
M325.724365,714.013733 
	C325.738617,711.370544 325.742310,709.209717 325.753601,707.048950 
	C325.764465,704.972046 326.454712,703.453918 328.844360,703.399109 
	C331.252441,703.343872 332.001007,704.817627 332.029877,706.920105 
	C332.086884,711.074585 332.008820,715.236084 332.234772,719.381165 
	C332.379974,722.044678 332.706604,725.190613 336.341522,725.116577 
	C340.221832,725.037415 339.768799,721.757507 339.809204,719.143860 
	C339.870911,715.155579 339.811096,711.165649 339.822113,707.176392 
	C339.828217,704.971924 340.353058,703.095215 343.096802,703.217773 
	C345.593506,703.329102 345.938568,705.226013 345.886261,707.136475 
	C345.736328,712.613586 345.723846,718.112000 345.188080,723.555908 
	C344.691406,728.602295 340.982208,730.364929 336.395081,730.650635 
	C330.815918,730.998108 327.315735,728.871460 326.278046,723.913208 
	C325.640808,720.868408 325.874481,717.641357 325.724365,714.013733 
z"/>
<path fill="#000000" opacity="1.000000" stroke="none" 
	d="
M704.337769,725.620728 
	C700.236084,723.369568 697.113770,723.802795 695.213013,728.147827 
	C694.403442,729.998291 692.807922,730.519958 691.079712,729.933228 
	C688.750000,729.142029 689.653137,727.306580 690.142700,725.756836 
	C692.143799,719.422424 694.190491,713.102295 696.201538,706.770996 
	C696.916077,704.521362 698.046448,702.933533 700.765381,703.076904 
	C703.210815,703.205750 704.230164,704.667114 704.797913,706.767273 
	C706.821167,714.251099 710.211121,721.327209 711.759644,729.072021 
	C707.611084,731.418091 705.775574,729.351685 704.337769,725.620728 
z"/>
<path fill="#000000" opacity="1.000000" stroke="none" 
	d="
M456.373413,703.279785 
	C459.550751,706.389893 458.578644,708.061157 454.914337,708.749756 
	C454.102966,708.902161 453.259857,708.876892 452.438263,708.985657 
	C451.122864,709.159668 449.614075,709.221436 449.482391,710.992065 
	C449.354645,712.710571 450.715332,713.172546 452.050964,713.481262 
	C453.850403,713.897156 456.411560,713.142761 456.522186,716.177612 
	C456.642059,719.465942 454.068970,719.076111 451.972687,719.314331 
	C450.261475,719.508911 449.229980,720.423218 449.243591,722.240479 
	C449.258362,724.207642 450.556396,724.718628 452.218231,724.797180 
	C453.212646,724.844177 454.206879,724.900024 455.199829,724.970825 
	C457.056946,725.103027 458.476501,725.728088 458.298370,727.952881 
	C458.135010,729.993103 456.588074,730.117737 455.048004,730.213623 
	C454.717041,730.234314 454.384644,730.237549 454.052856,730.238586 
	C440.857941,730.280457 441.863464,731.400696 441.978821,718.843872 
	C442.012360,715.195374 441.901978,711.545593 441.858673,707.896362 
	C441.817383,704.417969 443.421600,702.649963 447.013733,702.829285 
	C449.993378,702.977966 452.977478,703.037170 456.373413,703.279785 
z"/>
<path fill="#000000" opacity="1.000000" stroke="none" 
	d="
M613.849487,707.452209 
	C615.953369,715.989685 614.436096,718.826355 606.393677,720.667847 
	C602.958069,721.454468 602.258240,723.375549 602.375000,726.341187 
	C602.452148,728.300232 602.074585,730.117432 599.521606,730.056702 
	C597.052246,729.997986 596.693237,728.230347 596.639648,726.254761 
	C596.482544,720.465027 596.410889,714.670288 596.102356,708.888367 
	C595.844055,704.047668 598.066162,702.401062 602.689148,702.782532 
	C606.843689,703.125244 611.094116,702.882874 613.849487,707.452209 
M603.249146,713.159729 
	C604.124268,715.214844 605.642700,715.226196 607.234009,714.215942 
	C608.257751,713.565918 608.717957,712.443604 608.165039,711.210815 
	C607.653625,710.070679 606.675781,709.443604 605.446960,709.427124 
	C603.401794,709.399780 603.147766,710.854614 603.249146,713.159729 
z"/>
<path fill="#000000" opacity="1.000000" stroke="none" 
	d="
M631.791260,719.032227 
	C629.393066,719.386108 626.557251,718.677307 626.698303,722.030273 
	C626.826904,725.087585 629.395203,724.876587 631.550537,725.010315 
	C632.380310,725.061768 633.218628,725.042542 634.039551,725.154419 
	C635.462524,725.348206 636.704773,725.927490 636.676514,727.585083 
	C636.649780,729.155884 635.541626,730.057800 634.085815,730.107910 
	C630.433533,730.233459 626.773132,730.264038 623.119995,730.171875 
	C620.765564,730.112366 620.109741,728.412048 620.119873,726.374451 
	C620.152771,719.732910 620.171387,713.090698 620.313904,706.451294 
	C620.333252,705.549133 620.827087,704.474121 621.451599,703.807312 
	C622.645264,702.532776 633.586243,702.718628 635.114075,703.818481 
	C636.071106,704.507446 636.227112,705.438110 636.065430,706.446594 
	C635.883240,707.583374 635.035828,708.115234 633.961731,708.226501 
	C632.473816,708.380615 630.967651,708.384338 629.488342,708.589600 
	C627.927917,708.806152 626.451355,709.352722 626.551636,711.308594 
	C626.650269,713.230591 628.098938,713.666504 629.712769,713.768372 
	C630.376953,713.810303 631.041626,713.844299 631.706543,713.872681 
	C633.146118,713.933960 634.383911,714.349426 634.660950,715.966858 
	C634.985168,717.859680 633.888611,718.701355 631.791260,719.032227 
z"/>
<path fill="#000000" opacity="1.000000" stroke="none" 
	d="
M471.631348,720.266113 
	C470.044281,719.327332 468.694580,718.663696 467.436401,717.857361 
	C462.682800,714.810791 461.497009,709.876526 464.526642,705.946411 
	C467.168488,702.519287 474.544373,701.547668 477.841156,704.159668 
	C478.701660,704.841431 479.201080,705.616089 478.916321,706.718079 
	C478.605621,707.920593 478.012390,708.895264 476.583832,708.888306 
	C476.092072,708.885925 475.602325,708.717712 475.109467,708.638794 
	C473.410980,708.366882 471.426025,708.152710 470.792786,710.058716 
	C469.990173,712.474487 472.417572,712.939453 473.896576,713.842651 
	C474.888245,714.448242 476.010254,714.848816 476.972290,715.493042 
	C479.870789,717.434021 481.173462,720.149231 480.549835,723.637024 
	C479.887390,727.341919 477.602692,729.609497 473.944092,730.181335 
	C471.327057,730.590332 468.603668,730.717529 466.027588,729.849976 
	C464.469055,729.325134 462.666931,728.627808 463.303436,726.399719 
	C463.868073,724.423401 465.364899,724.022705 467.267944,724.535461 
	C468.221771,724.792419 469.258026,724.987061 470.227936,724.896912 
	C473.663849,724.577881 474.403595,723.111877 471.631348,720.266113 
z"/>
<path fill="#000000" opacity="1.000000" stroke="none" 
	d="
M790.875183,724.287537 
	C792.512390,721.362427 790.264282,720.562439 788.675293,719.529663 
	C787.015015,718.450378 785.030457,717.794495 783.549683,716.529724 
	C780.329102,713.778625 780.244019,708.207581 783.139099,705.350525 
	C786.057739,702.470215 793.673096,701.947754 796.174988,704.426453 
	C796.981995,705.225952 797.191589,706.119568 796.785889,707.128540 
	C796.391235,708.110229 795.727173,708.798218 794.537964,708.705566 
	C793.386169,708.615845 792.221680,708.409546 791.083374,708.503662 
	C789.901428,708.601318 788.732849,709.086731 788.565063,710.481262 
	C788.432922,711.579346 789.161194,712.346802 790.074890,712.848450 
	C791.236694,713.486328 792.439880,714.048645 793.623535,714.646667 
	C797.823792,716.768982 799.001587,720.354126 798.164612,724.669617 
	C797.321472,729.016235 793.943176,730.288757 790.061523,730.678650 
	C787.889648,730.896790 785.724976,730.636108 783.704407,729.852966 
	C782.350037,729.327942 780.750549,728.618591 781.231750,726.682129 
	C781.659363,724.961487 782.994995,724.436462 784.705994,724.659119 
	C786.671448,724.915039 788.652527,725.329712 790.875183,724.287537 
z"/>
<path fill="#000000" opacity="1.000000" stroke="none" 
	d="
M306.861511,704.699097 
	C310.576691,702.267944 314.122131,702.629578 317.722687,703.825256 
	C319.316895,704.354675 320.392334,705.229797 319.890839,707.109497 
	C319.403625,708.935669 318.186707,709.411438 316.455383,708.872925 
	C315.981110,708.725464 315.492218,708.572632 315.001984,708.538635 
	C313.335876,708.423096 311.365936,708.170654 310.854919,710.240601 
	C310.419525,712.004089 312.058929,712.781860 313.433807,713.419067 
	C314.638031,713.977234 315.909424,714.393494 317.100952,714.975281 
	C321.290771,717.021179 321.912476,720.696228 321.135834,724.708923 
	C320.408264,728.468262 317.770813,730.269470 314.001160,730.439331 
	C311.343201,730.559143 308.662354,730.725952 306.209961,729.393616 
	C304.822479,728.639832 303.669220,727.639160 304.353699,725.827759 
	C305.024323,724.053101 306.346863,723.806946 307.999359,724.470520 
	C308.611603,724.716431 309.279205,724.824158 309.921173,724.996338 
	C311.752655,725.487366 313.743073,725.961548 314.533112,723.616516 
	C315.219147,721.580261 313.405060,720.716003 312.020630,719.835754 
	C311.042511,719.213867 309.941406,718.787659 308.949982,718.184082 
	C303.332825,714.764221 302.546173,710.387817 306.861511,704.699097 
z"/>
<path fill="#000000" opacity="1.000000" stroke="none" 
	d="
M641.257812,718.592407 
	C641.188965,706.908325 647.700317,700.630249 656.858337,703.150024 
	C658.757263,703.672546 661.094177,704.196899 660.577515,706.905212 
	C660.082458,709.500122 658.048706,708.824890 656.189514,708.492310 
	C653.200256,707.957642 650.315125,708.411072 648.974854,711.473572 
	C647.319458,715.256165 646.841553,719.322388 649.437317,722.887024 
	C651.413147,725.600342 654.275146,726.184937 657.430054,724.656128 
	C657.994995,724.382385 658.688416,724.373962 659.305237,724.246643 
	C662.186951,727.273010 660.725586,729.010315 657.737183,730.248718 
	C649.978699,733.463989 642.831177,728.559692 641.257812,718.592407 
z"/>
<path fill="#000000" opacity="1.000000" stroke="none" 
	d="
M227.149170,716.915283 
	C228.383408,705.530090 234.143555,700.715271 242.867599,703.376160 
	C244.581375,703.898926 246.828537,704.230103 246.268921,706.756348 
	C245.767059,709.021851 243.996078,709.167664 241.921829,708.620483 
	C238.874664,707.816528 236.221649,708.666016 234.674683,711.527161 
	C232.583588,715.394714 233.190826,719.352844 235.288300,722.953064 
	C236.838440,725.613708 239.537796,725.903137 242.324966,724.968567 
	C244.049820,724.390259 245.727448,724.111206 246.473190,726.219788 
	C247.361252,728.730774 245.221359,729.375000 243.609985,730.054260 
	C236.869415,732.895935 229.330917,728.930298 227.787857,721.772522 
	C227.473587,720.314697 227.367188,718.812134 227.149170,716.915283 
z"/>
<path fill="#000000" opacity="1.000000" stroke="none" 
	d="
M831.042175,713.676758 
	C845.179016,714.252808 858.825439,714.822144 872.629211,715.398071 
	C872.221558,717.238892 871.521057,717.277954 870.896667,717.302063 
	C852.790894,717.998413 834.685120,718.699524 816.577087,719.331238 
	C814.846313,719.391663 812.586365,719.954712 811.770447,717.729004 
	C810.508484,714.286621 812.680237,713.095764 815.596741,713.121521 
	C820.583008,713.165588 825.566895,713.473206 831.042175,713.676758 
z"/>
<path fill="#000000" opacity="1.000000" stroke="none" 
	d="
M385.446320,708.317932 
	C381.998260,708.983398 381.146881,711.007629 381.190186,713.850952 
	C381.253235,717.991028 381.150116,722.134338 381.078827,726.275574 
	C381.039246,728.575134 380.076019,730.207458 377.533600,730.064819 
	C375.075409,729.926941 374.839294,728.004700 374.818573,726.090881 
	C374.773743,721.948975 374.736542,717.806702 374.743561,713.664673 
	C374.747833,711.138611 374.337677,708.925842 371.219696,708.685242 
	C369.178284,708.527649 368.144897,707.479126 368.312378,705.485779 
	C368.494354,703.319763 370.167542,702.943298 371.925659,702.943726 
	C375.900970,702.944824 379.893829,702.796875 383.846466,703.117432 
	C387.442810,703.408997 388.742310,705.110413 385.446320,708.317932 
z"/>
<path fill="#000000" opacity="1.000000" stroke="none" 
	d="
M183.859100,718.356018 
	C173.783401,718.178162 164.249771,716.876709 154.580750,716.863831 
	C156.581512,715.126221 158.953995,715.039124 161.280472,715.020203 
	C177.049683,714.891785 192.785873,714.030090 208.515656,712.999207 
	C209.342804,712.945007 210.179611,712.904297 211.003830,712.965759 
	C213.183594,713.128296 215.092682,713.882690 214.962555,716.441833 
	C214.833984,718.969971 212.811172,719.694275 210.683777,719.627319 
	C204.217026,719.423950 197.754593,719.079590 191.291321,718.772156 
	C188.972549,718.661926 186.656219,718.500549 183.859100,718.356018 
z"/>
<path fill="#000000" opacity="1.000000" stroke="none" 
	d="
M366.940094,725.906982 
	C368.402710,728.321228 367.838165,729.910156 365.407257,730.094055 
	C361.936005,730.356567 358.432159,730.277954 354.944946,730.208557 
	C352.588745,730.161743 351.897919,728.491211 351.884705,726.457947 
	C351.841431,719.807556 351.834564,713.156921 351.817657,706.506348 
	C351.812866,704.625427 352.444702,703.183960 354.579865,703.112732 
	C356.814301,703.038208 358.010376,704.320129 358.080444,706.458252 
	C358.205658,710.278748 358.421844,714.121582 358.152405,717.923279 
	C357.803528,722.845764 359.254120,725.681152 364.728149,725.135376 
	C365.340607,725.074341 365.997284,725.456665 366.940094,725.906982 
z"/>
<path fill="#000000" opacity="1.000000" stroke="none" 
	d="
M747.287720,719.955322 
	C747.265686,722.765747 747.307434,725.089722 747.196167,727.406311 
	C747.110840,729.184021 746.028137,730.071045 744.254333,730.073975 
	C742.378174,730.077087 741.629822,729.054993 741.594177,727.251709 
	C741.459961,720.455017 741.251831,713.659668 741.138550,706.862732 
	C741.104309,704.808044 741.876099,703.256653 744.299255,703.327393 
	C746.705017,703.397583 747.299805,704.951294 747.289978,707.023132 
	C747.270264,711.170593 747.285034,715.318176 747.287720,719.955322 
z"/>
</svg>